# xmcd CD Database Entry
#
# Track frame offsets:
# 150
# 15885
# 34172
# 45622
# 61887
# 82100
# 96905
# 110700
# 132332
# 147720
# 161927
# 172992
#
# Disc length: 2396 seconds
#
# Revision: 1
# Processed by: cddbd v1.4b41PL1 Copyright (c) Steve Scherf et al.
# Submitted via: tcd 2.0b
#
DISCID=a6095a0c
DTITLE=Ina May Wool - Moon Over 97th Street
DYEAR=1900
DGENRE=
TTITLE0=Elephant Learning to Dance
TTITLE1=Down on Tenth Street
TTITLE2=Moon Over 97th Street
TTITLE3=J'ai Gagne (I Won)
TTITLE4=Janis
TTITLE5=Hotwired and Hungry
TTITLE6=Don't Wanna Wait
TTITLE7=Dark Star
TTITLE8=Leopard
TTITLE9=Devil You Don't
TTITLE10=January Thaw
TTITLE11=Tenth Street Farewell (Instrumental)
EXTD=
EXTT0=
EXTT1=
EXTT2=
EXTT3=
EXTT4=
EXTT5=
EXTT6=
EXTT7=
EXTT8=
EXTT9=
EXTT10=
EXTT11=
PLAYORDER=
